<?xml version="1.0" standalone="no"?>
<!DOCTYPE svg PUBLIC "-//W3C//DTD SVG 20010904//EN"
 "http://www.w3.org/TR/2001/REC-SVG-20010904/DTD/svg10.dtd">
<svg version="1.0" xmlns="http://www.w3.org/2000/svg"
 width="220.000000pt" height="232.000000pt" viewBox="0 0 220.000000 232.000000"
 preserveAspectRatio="xMidYMid meet">

<g transform="translate(0.000000,232.000000) scale(0.100000,-0.100000)"
fill="#000000" stroke="none">
<path d="M1285 2260 c-10 -30 5 -110 21 -110 22 0 44 -42 44 -86 0 -44 -8 -55
-63 -83 -73 -37 -217 -184 -217 -221 0 -28 -79 -160 -122 -205 -27 -27 -57
-63 -69 -80 -45 -68 -149 -251 -149 -262 0 -15 -28 -17 -48 -4 -7 4 -18 37
-24 72 -14 86 3 155 89 358 11 25 11 36 3 41 -8 5 -9 10 -2 14 6 3 12 0 15 -6
2 -7 16 12 32 42 35 70 59 97 101 110 28 10 34 16 34 41 0 42 -35 106 -62 114
-13 4 -30 14 -39 21 -9 8 -41 16 -72 19 -32 2 -62 7 -68 10 -25 16 -104 -38
-104 -72 0 -18 -36 -52 -94 -91 -57 -38 -201 -172 -201 -186 0 -10 -31 -35
-43 -36 -5 0 -7 8 -5 18 1 9 -1 22 -5 28 -3 6 2 19 13 29 12 10 20 13 20 7 0
-7 5 -12 10 -12 17 0 11 27 -7 34 -21 8 -102 -74 -123 -124 -7 -16 -29 -44
-49 -62 -40 -36 -42 -54 -10 -127 19 -43 19 -43 44 -27 14 9 35 22 48 30 12 8
45 21 72 29 67 20 157 68 210 112 51 41 71 45 60 13 -15 -49 -44 -205 -44
-240 -1 -21 -3 -38 -5 -38 -2 0 -20 7 -39 15 -20 8 -40 15 -45 15 -17 0 -40
-84 -51 -180 -39 -346 -44 -510 -24 -717 9 -93 13 -107 47 -158 25 -38 49 -61
73 -71 35 -15 36 -15 62 13 36 38 55 96 42 122 -14 25 -14 27 4 45 14 13 14
16 -3 25 -13 7 -18 19 -16 38 11 90 23 152 32 170 6 11 16 42 22 68 11 50 27
68 99 111 32 19 49 24 60 17 20 -13 107 2 127 21 8 9 22 16 31 16 13 0 14 9 9
51 -5 34 -4 49 4 44 5 -3 10 -12 10 -19 0 -7 14 -32 30 -54 16 -23 30 -49 30
-58 0 -24 110 -130 120 -114 4 7 12 11 18 9 5 -2 -22 -46 -62 -97 -39 -52 -88
-117 -109 -145 -44 -60 -95 -116 -132 -145 -32 -25 -24 -46 14 -37 19 4 32 1
40 -9 11 -13 16 -13 34 -1 12 8 31 14 42 14 23 0 83 7 105 12 12 3 15 -8 15
-57 0 -96 29 -130 135 -154 19 -5 64 -19 100 -32 52 -19 72 -22 100 -15 44 11
60 24 60 48 0 11 6 19 14 19 8 0 21 13 29 29 12 24 12 32 1 52 -7 13 -13 31
-14 40 0 9 -12 34 -27 55 -16 24 -27 55 -29 79 -1 22 -3 40 -4 40 -1 0 -3 21
-5 47 -4 46 12 77 33 64 5 -3 42 -10 83 -17 41 -6 92 -19 114 -29 22 -9 58
-23 80 -30 22 -7 69 -27 105 -43 113 -53 210 -45 216 17 2 16 10 34 19 38 19
11 20 38 0 38 -8 0 -27 13 -41 29 -14 16 -44 37 -65 45 -22 9 -42 23 -45 30
-3 8 -20 18 -37 22 -18 3 -36 10 -42 14 -5 4 -36 13 -67 20 -46 11 -68 10
-115 0 -74 -16 -153 -20 -175 -8 -12 6 -18 5 -18 -2 0 -27 -19 5 -30 50 -10
40 -9 54 0 65 7 9 15 13 18 11 3 -3 17 1 31 8 14 8 44 18 66 23 27 5 39 13 38
23 -2 9 7 20 20 25 12 6 28 24 36 40 8 17 20 35 27 40 18 14 34 60 34 100 0
18 6 35 13 38 9 3 9 7 1 18 -12 14 -12 49 1 88 3 12 2 21 -4 21 -5 0 -13 -16
-17 -35 -3 -19 -10 -35 -15 -35 -12 0 -11 4 10 83 10 38 27 74 37 81 15 11 16
17 6 29 -25 30 56 127 106 127 12 0 12 -3 2 -15 -15 -18 1 -21 31 -5 14 8 18
17 13 36 -4 14 -1 36 7 50 19 36 2 72 -53 114 -46 35 -50 36 -119 32 -50 -3
-70 -1 -65 7 4 6 24 8 51 4 50 -6 60 7 20 25 -45 21 -68 18 -205 -28 -36 -12
-73 -24 -84 -27 -17 -5 -18 -2 -11 38 7 42 20 73 40 94 18 19 83 45 99 39 9
-3 25 5 41 20 22 22 25 34 25 89 0 64 -16 97 -48 97 -20 0 -52 39 -46 55 8 19
-18 60 -65 104 -75 72 -182 105 -196 61z m55 -522 c0 -6 -5 -40 -11 -75 -9
-49 -17 -68 -38 -83 -14 -12 -51 -40 -81 -63 -51 -38 -175 -91 -191 -81 -4 2
0 30 8 61 17 65 63 139 93 148 12 4 32 17 46 30 15 14 36 27 48 31 11 3 28 12
36 19 27 23 90 32 90 13z m270 -63 c-6 -7 -30 -17 -53 -20 -22 -4 -53 -16 -67
-25 -14 -10 -36 -21 -48 -25 -19 -6 -23 -3 -20 10 1 9 26 26 53 37 28 11 59
24 70 29 49 20 84 17 65 -6z m-70 -70 c0 -3 -12 -10 -26 -15 -14 -6 -23 -14
-20 -19 4 -5 -3 -7 -14 -4 -26 7 -25 9 8 27 27 15 52 20 52 11z m-13 -84 c3
-11 12 -22 20 -25 20 -8 5 -28 -16 -21 -14 4 -23 -6 -40 -46 -11 -28 -21 -58
-21 -65 0 -8 -9 -14 -20 -14 -16 0 -20 6 -19 33 1 17 -1 41 -4 52 -3 14 8 33
37 62 46 48 56 51 63 24z m233 -10 c0 -6 -4 -13 -10 -16 -5 -3 -10 1 -10 9 0
9 5 16 10 16 6 0 10 -4 10 -9z m-760 -18 c-1 -14 -39 -78 -40 -68 0 6 -6 1
-12 -10 -11 -19 -11 -19 -19 0 -5 15 2 29 24 53 30 31 47 40 47 25z m596 -25
c-8 -59 -19 -98 -32 -109 -8 -7 -17 -9 -20 -6 -13 12 -10 61 4 91 24 48 53 63
48 24z m-190 -185 c-9 -18 -19 -33 -23 -33 -15 0 -3 115 15 145 4 6 10 -10 15
-34 7 -34 5 -53 -7 -78z m-560 89 c-3 -5 -5 -30 -6 -58 -1 -27 -4 -82 -7 -122
-5 -68 -7 -72 -27 -66 -52 16 -72 66 -42 109 7 11 16 31 19 45 3 14 15 34 25
45 10 11 21 28 25 38 3 9 9 17 12 17 4 0 4 -4 1 -8z m654 -8 c0 -8 -4 -12 -10
-9 -5 3 -10 10 -10 16 0 5 5 9 10 9 6 0 10 -7 10 -16z m-220 -110 c0 -30 -5
-64 -11 -76 -16 -30 -72 -77 -91 -78 -9 0 -20 -9 -23 -20 -3 -11 -10 -20 -14
-20 -17 0 -39 36 -39 63 0 18 -11 40 -31 61 -44 45 -42 72 7 79 20 2 44 1 53
-4 9 -5 21 -3 27 3 15 15 84 46 105 47 14 1 17 -8 17 -55z m180 -105 c0 -31
-31 -68 -57 -69 -16 0 -16 -1 -2 39 6 17 17 31 25 31 8 0 14 7 14 15 0 8 5 15
10 15 6 0 10 -14 10 -31z m-946 -70 c13 -68 1 -91 -24 -45 -13 25 -7 76 9 76
5 0 11 -14 15 -31z m703 -146 c-9 -9 -20 -13 -24 -9 -4 4 1 14 11 22 25 18 35
8 13 -13z m-699 -232 c-11 -25 -23 -48 -27 -51 -4 -3 -10 -12 -13 -20 -4 -10
-9 -6 -18 15 -16 42 -7 125 16 142 16 12 21 10 40 -14 l21 -27 -19 -45z m1042
-61 c0 -5 -7 -10 -16 -10 -8 0 -12 5 -9 10 3 6 10 10 16 10 5 0 9 -4 9 -10z
m-281 -220 c-4 -136 -7 -140 -76 -140 -34 0 -45 5 -62 28 -11 16 -22 40 -25
55 -17 79 -18 74 17 87 27 11 29 14 12 17 -30 7 -41 21 -28 34 12 12 103 37
142 38 l23 1 -3 -120z m-222 -57 c4 -11 -35 -39 -42 -31 -1 2 1 14 6 26 9 24
29 26 36 5z"/>
<path d="M537 1963 c-12 -12 -7 -22 8 -17 8 4 15 10 15 15 0 11 -14 12 -23 2z"/>
<path d="M380 1850 c-6 -11 -7 -20 -2 -20 10 0 32 21 32 32 0 16 -19 8 -30
-12z"/>
</g>
</svg>
